<mxfile host="app.diagrams.net" agent="Mozilla/5.0 (Windows NT 10.0; Win64; x64; rv:136.0) Gecko/20100101 Firefox/136.0" version="26.1.1">
  <diagram name="Page-1" id="7EqTgYEN8Ro_o2SXMIRn">
    <mxGraphModel dx="1050" dy="558" grid="1" gridSize="10" guides="1" tooltips="1" connect="1" arrows="1" fold="1" page="1" pageScale="1" pageWidth="827" pageHeight="1169" math="0" shadow="0">
      <root>
        <mxCell id="0" />
        <mxCell id="1" parent="0" />
        <mxCell id="PFpg_kEx61AuVyOLCliX-2" value="" style="rounded=0;whiteSpace=wrap;html=1;" vertex="1" parent="1">
          <mxGeometry x="190" y="20" width="430" height="450" as="geometry" />
        </mxCell>
        <mxCell id="PFpg_kEx61AuVyOLCliX-13" style="edgeStyle=orthogonalEdgeStyle;rounded=0;orthogonalLoop=1;jettySize=auto;html=1;endArrow=none;startFill=0;entryX=0;entryY=0.5;entryDx=0;entryDy=0;" edge="1" parent="1" source="PFpg_kEx61AuVyOLCliX-1" target="PFpg_kEx61AuVyOLCliX-5">
          <mxGeometry relative="1" as="geometry">
            <Array as="points">
              <mxPoint x="344" y="200" />
            </Array>
          </mxGeometry>
        </mxCell>
        <mxCell id="PFpg_kEx61AuVyOLCliX-14" style="edgeStyle=orthogonalEdgeStyle;rounded=0;orthogonalLoop=1;jettySize=auto;html=1;entryX=0;entryY=0.5;entryDx=0;entryDy=0;endArrow=none;startFill=0;" edge="1" parent="1" source="PFpg_kEx61AuVyOLCliX-1" target="PFpg_kEx61AuVyOLCliX-4">
          <mxGeometry relative="1" as="geometry">
            <Array as="points">
              <mxPoint x="212" y="180" />
              <mxPoint x="212" y="105" />
            </Array>
          </mxGeometry>
        </mxCell>
        <mxCell id="PFpg_kEx61AuVyOLCliX-16" style="edgeStyle=orthogonalEdgeStyle;rounded=0;orthogonalLoop=1;jettySize=auto;html=1;endArrow=none;startFill=0;entryX=0;entryY=0.5;entryDx=0;entryDy=0;" edge="1" parent="1" source="PFpg_kEx61AuVyOLCliX-1" target="PFpg_kEx61AuVyOLCliX-15">
          <mxGeometry relative="1" as="geometry">
            <Array as="points">
              <mxPoint x="212" y="220" />
              <mxPoint x="212" y="325" />
            </Array>
          </mxGeometry>
        </mxCell>
        <mxCell id="PFpg_kEx61AuVyOLCliX-1" value="User" style="shape=umlActor;verticalLabelPosition=bottom;verticalAlign=top;html=1;outlineConnect=0;" vertex="1" parent="1">
          <mxGeometry x="50" y="170" width="30" height="60" as="geometry" />
        </mxCell>
        <mxCell id="PFpg_kEx61AuVyOLCliX-3" value="dispatch subsystem" style="text;html=1;align=center;verticalAlign=middle;whiteSpace=wrap;rounded=0;" vertex="1" parent="1">
          <mxGeometry x="405" y="20" width="60" height="30" as="geometry" />
        </mxCell>
        <mxCell id="PFpg_kEx61AuVyOLCliX-4" value="adds report" style="ellipse;whiteSpace=wrap;html=1;" vertex="1" parent="1">
          <mxGeometry x="344" y="70" width="140" height="70" as="geometry" />
        </mxCell>
        <mxCell id="PFpg_kEx61AuVyOLCliX-7" value="" style="edgeStyle=orthogonalEdgeStyle;rounded=0;orthogonalLoop=1;jettySize=auto;html=1;dashed=1;endArrow=open;endFill=0;" edge="1" parent="1" source="PFpg_kEx61AuVyOLCliX-5" target="PFpg_kEx61AuVyOLCliX-4">
          <mxGeometry relative="1" as="geometry" />
        </mxCell>
        <mxCell id="PFpg_kEx61AuVyOLCliX-8" value="&amp;lt;&amp;lt;include&amp;gt;&amp;gt;" style="edgeLabel;html=1;align=center;verticalAlign=middle;resizable=0;points=[];" vertex="1" connectable="0" parent="PFpg_kEx61AuVyOLCliX-7">
          <mxGeometry x="-0.16" relative="1" as="geometry">
            <mxPoint as="offset" />
          </mxGeometry>
        </mxCell>
        <mxCell id="PFpg_kEx61AuVyOLCliX-5" value="adds category, location, description, pictures" style="ellipse;whiteSpace=wrap;html=1;" vertex="1" parent="1">
          <mxGeometry x="344" y="180" width="140" height="70" as="geometry" />
        </mxCell>
        <mxCell id="PFpg_kEx61AuVyOLCliX-17" value="" style="edgeStyle=orthogonalEdgeStyle;rounded=0;orthogonalLoop=1;jettySize=auto;html=1;endArrow=open;endFill=0;dashed=1;" edge="1" parent="1" source="PFpg_kEx61AuVyOLCliX-15" target="PFpg_kEx61AuVyOLCliX-5">
          <mxGeometry relative="1" as="geometry" />
        </mxCell>
        <mxCell id="PFpg_kEx61AuVyOLCliX-18" value="&amp;lt;&amp;lt;include&amp;gt;&amp;gt;" style="edgeLabel;html=1;align=center;verticalAlign=middle;resizable=0;points=[];" vertex="1" connectable="0" parent="PFpg_kEx61AuVyOLCliX-17">
          <mxGeometry x="-0.25" y="-2" relative="1" as="geometry">
            <mxPoint as="offset" />
          </mxGeometry>
        </mxCell>
        <mxCell id="PFpg_kEx61AuVyOLCliX-15" value="receives generated report with status updates" style="ellipse;whiteSpace=wrap;html=1;" vertex="1" parent="1">
          <mxGeometry x="344" y="290" width="140" height="70" as="geometry" />
        </mxCell>
      </root>
    </mxGraphModel>
  </diagram>
</mxfile>
